<?xml version="1.0" encoding="UTF-8" standalone="no"?>
<!-- Created with Inkscape (http://www.inkscape.org/) -->

<svg
   width="100"
   height="100"
   viewBox="0 0 26.458332 26.458334"
   version="1.1"
   id="svg1"
   xml:space="preserve"
   inkscape:version="1.4 (e7c3feb1, 2024-10-09)"
   sodipodi:docname="icono-drenaje-100x100px.svg"
   xmlns:inkscape="http://www.inkscape.org/namespaces/inkscape"
   xmlns:sodipodi="http://sodipodi.sourceforge.net/DTD/sodipodi-0.dtd"
   xmlns="http://www.w3.org/2000/svg"
   xmlns:svg="http://www.w3.org/2000/svg"><sodipodi:namedview
     id="namedview1"
     pagecolor="#505050"
     bordercolor="#eeeeee"
     borderopacity="1"
     inkscape:showpageshadow="0"
     inkscape:pageopacity="0"
     inkscape:pagecheckerboard="0"
     inkscape:deskcolor="#505050"
     inkscape:document-units="mm"
     inkscape:zoom="2.9647587"
     inkscape:cx="43.173834"
     inkscape:cy="54.979179"
     inkscape:window-width="1440"
     inkscape:window-height="775"
     inkscape:window-x="0"
     inkscape:window-y="25"
     inkscape:window-maximized="1"
     inkscape:current-layer="layer1" /><defs
     id="defs1" /><g
     inkscape:label="Capa 1"
     inkscape:groupmode="layer"
     id="layer1"><path
       style="fill:#ffffff;stroke-width:0.320822"
       d="m 2.3747512,25.600463 c -0.674082,-0.26283 -1.1676476,-0.763653 -1.38641121,-1.406796 -0.071019,-0.20878 -0.0976347,-2.109378 -0.0962765,-6.875611 0.001787,-6.440599 0.005719,-6.595562 0.17457131,-6.969047 C 1.2787981,9.8797614 1.6715301,9.4590162 2.121019,9.2194174 2.4089728,9.0659243 2.6522672,9.0315919 3.7224886,8.9934244 L 4.9844218,8.9484255 5.1435431,8.3208877 C 5.5386496,6.7626705 7.1757479,4.1041753 8.8473512,2.3062474 9.315751,1.8024501 9.5029082,1.822033 10.064214,2.4335739 c 1.296651,1.4126946 2.828727,3.7877859 3.3712,5.2261823 0.692688,1.8367007 0.368515,3.5402218 -0.919294,4.8308638 -2.405064,2.410357 -6.5031088,1.342779 -7.3580395,-1.916834 L 5.0100737,10.009477 H 3.8757375 c -1.2793931,0 -1.4984534,0.07135 -1.8242446,0.594188 L 1.866367,10.900759 1.84329,17.267066 1.820225,23.633371 2.0130627,24.01535 c 0.1413004,0.279889 0.294062,0.433022 0.5715816,0.572967 l 0.3787439,0.190989 H 13.113505 23.263621 l 0.376801,-0.190989 c 0.223147,-0.113111 0.446822,-0.31214 0.548511,-0.488084 0.168246,-0.291099 0.171711,-0.427274 0.171711,-6.748284 v -6.45119 L 24.174476,10.603665 C 23.864238,10.108576 23.713884,10.056314 22.465024,10.009477 21.471427,9.97221 21.318674,9.9469286 21.212984,9.8022637 21.045168,9.5725583 21.062903,9.2987142 21.25697,9.1230873 21.400828,8.992899 21.56761,8.9782949 22.593895,9.006021 c 0.996443,0.026926 1.223562,0.058914 1.512099,0.2130343 0.449737,0.2402194 0.842329,0.6609492 1.054385,1.1299597 0.168852,0.373455 0.172748,0.528553 0.17457,6.950645 0.0014,4.897627 -0.02428,6.65755 -0.100923,6.918053 -0.138837,0.471922 -0.92061,1.253697 -1.392534,1.392532 -0.495409,0.145746 -21.0919237,0.136366 -21.4667348,-0.0098 z M 10.760618,12.533726 c 1.362318,-0.625781 2.23847,-2.188654 2.010163,-3.5857198 C 12.577274,7.7638911 11.618333,6.0057057 10.120498,4.0888076 9.7465791,3.6102737 9.417135,3.219685 9.3884022,3.2208323 9.2965696,3.2245256 8.0817143,4.8189291 7.5244425,5.667176 6.0239196,7.9511901 5.6680957,9.4434828 6.3013498,10.796715 c 0.4357199,0.931112 1.076232,1.500313 2.0999759,1.866175 0.6359824,0.227284 1.7114873,0.168404 2.3592923,-0.129164 z M 4.3877328,23.070738 C 3.9786227,22.868233 3.6424865,22.474618 3.4729406,21.999521 3.3831691,21.747967 3.3584953,20.654752 3.3555526,16.797864 c -0.00405,-5.381041 -0.015667,-5.260479 0.5043287,-5.260479 0.5325861,0 0.5105548,-0.225035 0.5105548,5.214987 0,4.832472 0.00405,4.953295 0.1710948,5.16572 0.2172232,0.276155 0.6671493,0.432077 0.9413925,0.326241 0.1117646,-0.04314 0.2987109,-0.181 0.4154257,-0.306369 l 0.2122098,-0.227945 0.042437,-3.604018 c 0.036266,-3.079545 0.060976,-3.61572 0.1697688,-3.68443 0.2018947,-0.127504 0.470928,-0.09634 0.623474,0.07222 0.1261375,0.13938 0.1402925,0.522928 0.1386186,3.756121 -0.00167,3.323787 -0.013963,3.627018 -0.1590653,3.940425 -0.4321744,0.933455 -1.6073492,1.341098 -2.5380691,0.880401 z m 5.417825,0.08621 C 9.431944,23.007838 9.0418843,22.655571 8.8472916,22.291524 8.6611698,21.943325 8.6565496,21.86578 8.6320557,18.679784 c -0.027771,-3.611661 -0.021028,-3.662151 0.4890372,-3.662151 0.5057571,0 0.5121609,0.04426 0.5121609,3.540237 v 3.162927 l 0.2459655,0.275283 c 0.3318737,0.371431 0.8284817,0.389155 1.1758417,0.04197 l 0.233431,-0.233316 0.04244,-3.527801 c 0.04052,-3.367876 0.04991,-3.533258 0.207213,-3.648201 0.226171,-0.165266 0.502828,-0.150904 0.670914,0.03483 0.12586,0.139073 0.140433,0.512357 0.140009,3.586352 -2.72e-4,1.964449 -0.03581,3.558117 -0.08314,3.728215 -0.115542,0.415254 -0.562067,0.926661 -0.971434,1.112591 -0.376348,0.170934 -1.141327,0.20496 -1.4889382,0.06623 z m 5.1269442,-0.06167 c -0.411241,-0.19221 -0.856569,-0.70434 -0.971433,-1.117153 -0.128408,-0.461489 -0.109632,-8.848475 0.02078,-9.284958 0.144466,-0.483502 0.69018,-1.009876 1.192905,-1.150631 0.84798,-0.237419 1.734025,0.100971 2.15947,0.824723 l 0.235688,0.400943 v 4.583741 4.58374 l -0.21221,0.378209 c -0.116721,0.208015 -0.376198,0.493343 -0.576626,0.634063 -0.474313,0.333011 -1.308969,0.39953 -1.848574,0.147323 z m 1.151003,-0.904458 c 0.530256,-0.274207 0.510242,-0.08341 0.510242,-4.864293 v -4.359171 l -0.248124,-0.248123 c -0.194596,-0.194596 -0.324185,-0.248123 -0.600717,-0.248123 -0.276532,0 -0.406122,0.05353 -0.600718,0.248123 l -0.248123,0.248123 v 4.366611 c 0,4.332106 0.0014,4.368436 0.181492,4.597343 0.298917,0.38001 0.615163,0.461594 1.005948,0.259513 z m 4.117087,0.90682 c -0.427149,-0.199776 -0.854581,-0.680077 -0.976147,-1.096887 -0.06406,-0.219645 -0.08518,-1.729889 -0.06749,-4.824859 l 0.02576,-4.505136 0.234155,-0.353752 c 0.339934,-0.513557 0.796094,-0.785231 1.412275,-0.841104 0.43928,-0.03983 0.577604,-0.01421 0.976107,0.180751 0.581797,0.284646 0.950571,0.800119 1.027643,1.436436 0.02925,0.241489 0.04117,2.329863 0.02651,4.640832 l -0.02668,4.201762 -0.238123,0.4051 c -0.346493,0.589461 -0.796339,0.857681 -1.492619,0.889974 -0.413493,0.01918 -0.650652,-0.01585 -0.901393,-0.133117 z m 1.145726,-0.90682 c 0.529644,-0.273891 0.510241,-0.09223 0.510241,-4.777095 0,-3.644301 -0.01884,-4.308401 -0.128204,-4.519895 -0.351669,-0.680052 -1.348002,-0.528147 -1.572069,0.239685 -0.0616,0.211061 -0.0831,1.66602 -0.06571,4.445082 l 0.02585,4.13132 0.212211,0.228271 c 0.356152,0.383107 0.632635,0.451742 1.017673,0.252632 z M 16.480424,9.2123549 C 15.508169,8.8032614 15.007218,8.3279265 14.57733,7.406578 14.391827,7.0090017 14.340404,6.7603806 14.316856,6.1472468 c -0.02626,-0.6836143 -0.0018,-0.8393223 0.232526,-1.4805921 0.414203,-1.1335189 1.401559,-2.6652777 2.506376,-3.88832512 0.480281,-0.53167829 0.77218,-0.58686005 1.122531,-0.21221096 1.683865,1.80065148 2.999198,4.19248068 2.999198,5.45380158 0,0.4422797 -0.226193,1.2404405 -0.487691,1.720896 -0.284507,0.5227333 -0.903813,1.0859371 -1.532149,1.3933535 -0.411907,0.2015277 -0.605874,0.2395677 -1.332017,0.2612332 -0.745712,0.022243 -0.910627,-1.906e-4 -1.345206,-0.183048 z m 2.309878,-1.022605 c 0.517355,-0.2621637 1.05999,-0.870003 1.234875,-1.38326 C 20.307919,5.9766881 20.117797,5.1168274 19.370406,3.8452093 18.932985,3.1009734 17.878701,1.6799998 17.726584,1.6296492 17.56889,1.5774542 16.282939,3.3579152 15.833671,4.250482 15.303745,5.3032924 15.17285,5.8602365 15.310637,6.4759355 c 0.357246,1.5963382 2.058228,2.4341105 3.479665,1.7138144 z"
       id="path1" /></g></svg>
