<?xml version="1.0" encoding="UTF-8" standalone="no"?>
<!-- Created with Inkscape (http://www.inkscape.org/) -->

<svg
   width="400"
   height="400"
   viewBox="0 0 105.83333 105.83333"
   version="1.1"
   id="svg1"
   xml:space="preserve"
   inkscape:export-filename="icono-dimension-blanco.svg"
   inkscape:export-xdpi="96"
   inkscape:export-ydpi="96"
   inkscape:version="1.3.2 (091e20e, 2023-11-25)"
   sodipodi:docname="icono-angulo.svg"
   xmlns:inkscape="http://www.inkscape.org/namespaces/inkscape"
   xmlns:sodipodi="http://sodipodi.sourceforge.net/DTD/sodipodi-0.dtd"
   xmlns:xlink="http://www.w3.org/1999/xlink"
   xmlns="http://www.w3.org/2000/svg"
   xmlns:svg="http://www.w3.org/2000/svg"><sodipodi:namedview
     id="namedview1"
     pagecolor="#505050"
     bordercolor="#eeeeee"
     borderopacity="1"
     inkscape:showpageshadow="0"
     inkscape:pageopacity="0"
     inkscape:pagecheckerboard="0"
     inkscape:deskcolor="#505050"
     inkscape:document-units="mm"
     inkscape:zoom="0.5096119"
     inkscape:cx="70.641992"
     inkscape:cy="267.85089"
     inkscape:window-width="1392"
     inkscape:window-height="952"
     inkscape:window-x="0"
     inkscape:window-y="25"
     inkscape:window-maximized="0"
     inkscape:current-layer="layer1" /><defs
     id="defs1"><color-profile
       name="sRGB-IEC61966-2.1"
       xlink:href="file:///System/Library/ColorSync/Profiles/sRGB%20Profile.icc"
       id="color-profile1" /><color-profile
       name="sRGB-IEC61966-2.1"
       xlink:href="file:///System/Library/ColorSync/Profiles/sRGB%20Profile.icc"
       id="color-profile2" /></defs><g
     inkscape:label="Capa 1"
     inkscape:groupmode="layer"
     id="layer1"><path
       style="fill:#483e37;stroke-width:0.742426"
       d="M 5.0965834,92.37269 C 4.2294993,91.844015 3.7802118,90.865499 3.95639,89.889402 4.080511,89.201722 7.4797848,85.743126 40.371227,52.839018 66.726068,26.474024 76.827404,16.48828 77.30079,16.332049 c 0.895315,-0.29548 1.835453,-0.07819 2.435661,0.562934 0.639245,0.682829 0.814911,1.269084 0.651844,2.1754 -0.114104,0.634143 -2.930588,3.522294 -23.72934,24.333124 l -23.599874,23.613577 0.6285,0.744166 c 1.171106,1.386633 3.292866,4.66366 4.297323,6.63717 1.735733,3.41027 3.004519,7.477916 3.420855,10.967051 0.118204,0.990616 0.253137,2.000012 0.299851,2.243088 l 0.08494,0.441981 h 30.462232 c 28.360148,0 30.501388,0.02321 31.029558,0.335123 0.60645,0.358242 1.16298,1.321254 1.16298,2.012406 0,0.674946 -0.55698,1.567177 -1.23725,1.981963 -0.61922,0.377568 -1.37115,0.383438 -49.049704,0.383438 -47.9892379,0 -48.4265486,-0.0039 -49.0617826,-0.39078 z M 36.787819,86.921044 C 36.400404,83.546549 35.281805,79.757033 33.79195,76.771865 32.85369,74.891914 31.21228,72.312367 30.219287,71.157266 l -0.591033,-0.687515 -8.655103,8.642232 c -4.760306,4.75323 -8.655102,8.708908 -8.655102,8.790395 0,0.08152 5.534874,0.148162 12.299721,0.148162 h 12.299722 z m 24.417163,-3.129917 c -1.077957,-0.668998 -1.153615,-1.032554 -1.153615,-5.543459 v -4.143896 h -4.00233 c -2.201282,0 -4.283878,-0.05636 -4.62799,-0.125131 -0.818001,-0.163598 -1.702054,-1.06402 -1.857329,-1.891701 -0.09685,-0.516273 0.364909,-2.203647 2.139064,-7.81654 2.689132,-8.507595 2.772989,-8.742197 3.300556,-9.233702 1.354039,-1.261473 3.609932,-0.509662 3.958382,1.319206 0.08844,0.464193 -0.36662,2.14405 -1.822516,6.727841 l -1.940388,6.109186 h 2.426276 2.426275 v -2.625366 c 0,-2.890858 0.150547,-3.321938 1.382624,-3.959071 0.714091,-0.36927 1.244668,-0.367427 2.033905,0.0078 1.322357,0.627498 1.297873,0.427618 1.297873,10.595187 0,10.051867 0.0053,10.004244 -1.172171,10.613119 -0.744824,0.385164 -1.737147,0.371552 -2.388616,-0.03276 z m 9.378139,-0.07947 c -0.604935,-0.475835 -1.10295,-1.354962 -1.10295,-1.946987 0,-0.666015 0.560646,-1.559738 1.237246,-1.972291 0.538982,-0.328629 0.996489,-0.383545 3.200719,-0.384169 2.305137,-6.63e-4 2.660553,-0.04768 3.427225,-0.453078 0.966295,-0.510987 1.760047,-1.763859 1.760047,-2.778092 0,-0.995647 -0.781547,-2.309022 -1.669683,-2.805861 -0.703391,-0.393481 -1.061212,-0.439885 -3.414399,-0.442781 -2.289184,-0.0029 -2.711408,-0.05431 -3.269348,-0.399195 -1.242603,-0.767978 -1.29521,-1.091585 -1.231087,-7.573201 l 0.05749,-5.811877 0.733741,-0.672167 0.733741,-0.672167 h 5.313498 c 5.823035,0 5.981966,0.02886 6.586531,1.198025 0.496127,0.959394 0.365882,1.861941 -0.387383,2.684426 l -0.671991,0.733733 -3.747759,0.06104 -3.74776,0.06104 v 2.700583 2.700573 l 1.829459,0.19835 c 4.436529,0.480994 7.346866,3.36022 7.563224,7.482382 0.133013,2.534167 -0.629666,4.616729 -2.259951,6.171006 -1.99137,1.898536 -3.352616,2.330962 -7.337667,2.330962 -2.827442,0 -3.124439,-0.03374 -3.60295,-0.410204 z M 90.841505,61.122336 c -1.179016,-0.277877 -2.535116,-1.053752 -3.453956,-1.976152 -4.364601,-4.381464 -1.536813,-11.910952 4.621732,-12.306182 2.362228,-0.151596 4.205365,0.57117 5.792093,2.271325 1.454574,1.558553 1.831326,2.557974 1.831326,4.858016 0,1.711917 -0.06652,2.106198 -0.517634,3.068293 -1.49183,3.181616 -4.921301,4.874763 -8.273561,4.0847 z m 3.152295,-5.18468 c 1.205112,-1.014038 1.302422,-2.542329 0.230152,-3.614607 -1.08147,-1.081464 -2.695799,-0.967312 -3.629355,0.256649 -0.828034,1.085607 -0.55751,2.665948 0.60723,3.547239 0.631025,0.477464 2.119521,0.376554 2.791973,-0.189281 z"
       id="path3" /></g></svg>
