<?xml version="1.0" encoding="UTF-8" standalone="no"?>
<!-- Created with Inkscape (http://www.inkscape.org/) -->

<svg
   width="100"
   height="100"
   viewBox="0 0 26.458332 26.458334"
   version="1.1"
   id="svg1"
   xml:space="preserve"
   inkscape:version="1.4 (e7c3feb1, 2024-10-09)"
   sodipodi:docname="icono-gas-100x100px.svg"
   xmlns:inkscape="http://www.inkscape.org/namespaces/inkscape"
   xmlns:sodipodi="http://sodipodi.sourceforge.net/DTD/sodipodi-0.dtd"
   xmlns="http://www.w3.org/2000/svg"
   xmlns:svg="http://www.w3.org/2000/svg"><sodipodi:namedview
     id="namedview1"
     pagecolor="#505050"
     bordercolor="#eeeeee"
     borderopacity="1"
     inkscape:showpageshadow="0"
     inkscape:pageopacity="0"
     inkscape:pagecheckerboard="0"
     inkscape:deskcolor="#505050"
     inkscape:document-units="mm"
     inkscape:zoom="4.192802"
     inkscape:cx="24.565911"
     inkscape:cy="52.470878"
     inkscape:window-width="1424"
     inkscape:window-height="765"
     inkscape:window-x="0"
     inkscape:window-y="25"
     inkscape:window-maximized="0"
     inkscape:current-layer="layer1" /><defs
     id="defs1" /><g
     inkscape:label="Capa 1"
     inkscape:groupmode="layer"
     id="layer1"><path
       style="fill:#ffffff;stroke-width:0.194124"
       d="m 15.993583,25.880845 c 1.171415,-0.904387 2.231983,-2.467641 2.75281,-4.057589 0.525405,-1.603919 0.625293,-3.451314 0.274309,-5.073307 -0.380316,-1.757535 -1.168631,-3.36507 -2.480945,-5.059147 -0.44254,-0.571274 -2.267633,-2.4559775 -2.323855,-2.3997529 -0.01825,0.018252 -0.0037,0.3395203 0.03224,0.7139449 0.176565,1.837173 -0.175783,4.056627 -0.96037,6.049314 -0.225055,0.571593 -0.766502,1.685061 -1.000129,2.056731 l -0.112988,0.17976 -0.06905,-0.435206 c -0.07325,-0.4617 -0.358954,-1.359996 -0.557224,-1.751966 -0.224709,-0.444243 -0.735155,-1.151581 -1.066259,-1.477542 -0.182237,-0.179412 -0.343623,-0.306311 -0.35864,-0.282014 -0.01499,0.02429 -0.06586,0.194187 -0.112988,0.377554 -0.1512079,0.588294 -0.5848059,1.676874 -1.1016479,2.765816 -0.5646011,1.189564 -0.8303271,1.833589 -0.9507615,2.304314 -0.1344992,0.525671 -0.2331421,1.292612 -0.2334636,1.815053 -7.584e-4,1.243781 0.6569362,2.568798 1.8786603,3.784773 0.2625407,0.261304 0.4701197,0.475099 0.4612887,0.475099 -0.06186,0 -0.9734525,-0.394328 -1.3575139,-0.587216 C 6.4102749,24.125952 4.9452047,22.443736 4.3561504,20.28369 3.9048002,18.6286 4.0052574,16.765415 4.6491392,14.849553 5.1266352,13.428777 5.6162864,12.460604 7.363646,9.4822335 9.0115066,6.6734623 9.6163619,5.4945758 10.274754,3.8083608 10.619402,2.9256854 11.06456,1.5193649 11.222547,0.81413721 11.287515,0.52415564 11.358481,0.2930278 11.380252,0.3005176 c 0.102342,0.0352001 1.878711,1.7393982 3.039056,2.9155665 5.324215,5.3968088 7.411009,9.0487489 7.786488,13.6265389 0.171741,2.093785 -0.115987,3.673242 -0.953378,5.233687 -0.514686,0.95909 -1.344406,1.924443 -2.224735,2.588412 -0.470727,0.355039 -1.561299,0.923495 -2.109582,1.099613 -0.295531,0.09493 -0.974391,0.257395 -1.069116,0.255861 -0.01934,-3.11e-4 0.04574,-0.06303 0.144603,-0.139366 z"
       id="path1" /></g></svg>
