<?xml version="1.0" encoding="UTF-8" standalone="no"?>
<!-- Created with Inkscape (http://www.inkscape.org/) -->

<svg
   width="100"
   height="100"
   viewBox="0 0 26.458333 26.458333"
   version="1.1"
   id="svg1"
   xml:space="preserve"
   inkscape:version="1.4 (e7c3feb100, 2024-10-09)"
   sodipodi:docname="icono-pintura-100x100px.svg"
   xmlns:inkscape="http://www.inkscape.org/namespaces/inkscape"
   xmlns:sodipodi="http://sodipodi.sourceforge.net/DTD/sodipodi-0.dtd"
   xmlns:xlink="http://www.w3.org/1999/xlink"
   xmlns="http://www.w3.org/2000/svg"
   xmlns:svg="http://www.w3.org/2000/svg"><sodipodi:namedview
     id="namedview1"
     pagecolor="#ffffff"
     bordercolor="#cccccc"
     borderopacity="1"
     inkscape:showpageshadow="0"
     inkscape:pageopacity="1"
     inkscape:pagecheckerboard="0"
     inkscape:deskcolor="#d1d1d1"
     inkscape:document-units="mm"
     inkscape:zoom="4.0718557"
     inkscape:cx="31.803681"
     inkscape:cy="19.89265"
     inkscape:window-width="1920"
     inkscape:window-height="1011"
     inkscape:window-x="0"
     inkscape:window-y="0"
     inkscape:window-maximized="1"
     inkscape:current-layer="layer1" /><defs
     id="defs1"><color-profile
       name="sRGB"
       xlink:href="file:///app/share/color/icc/colord/sRGB.icc"
       id="color-profile2" /></defs><g
     inkscape:label="Capa 1"
     inkscape:groupmode="layer"
     id="layer1"><path
       style="fill:#808080;stroke-width:1.48804"
       d="M 11.603397,25.335788 C 9.0324946,25.227236 6.6296546,24.805307 5.5665039,24.275742 4.9144272,23.950939 4.6967016,23.491389 5.0404225,23.165356 l 0.162912,-0.154528 0.00114,-6.388322 0.00114,-6.388321 -0.1623321,-0.192907 C 4.8078835,9.7615234 4.717622,9.3726629 4.8108849,9.0400906 4.8522821,8.8924473 4.9275025,8.5206458 4.9780096,8.2138789 5.4486006,5.3559637 7.3078122,3.0573678 10.053709,1.9386463 c 0.649785,-0.2647326 0.699583,-0.2980484 0.740273,-0.4952701 0.07896,-0.3826956 0.07388,-0.381904 2.450977,-0.381904 2.170447,0 2.174475,2.575e-4 2.311159,0.1476433 0.07531,0.081203 0.1469,0.2179637 0.159079,0.3039128 0.01791,0.1262453 0.110398,0.1903233 0.481487,0.3335202 1.920151,0.7409544 3.332575,1.9276842 4.357599,3.66128 0.458951,0.776212 0.821914,1.8325668 0.986164,2.8700978 0.03428,0.2165411 0.08872,0.5145715 0.120962,0.6622922 0.0728,0.3334131 -0.03997,0.8222846 -0.2384,1.0334985 l -0.140903,0.149982 v 6.398532 6.398531 l 0.164046,0.154114 c 0.189857,0.178361 0.211803,0.427562 0.05709,0.648428 -0.391517,0.558968 -2.156462,1.09144 -4.474523,1.349932 -0.852152,0.09503 -3.565305,0.243458 -4.047354,0.221425 -0.108269,-0.0049 -0.728364,-0.03144 -1.377985,-0.05887 z m 5.29765,-5.502033 0.214296,-0.191436 0.03281,-3.457581 0.03281,-3.457578 0.276612,-0.0134 c 0.567991,-0.0275 0.740474,-0.371802 0.740474,-1.478083 0,-0.763973 0.0046,-0.789292 0.147644,-0.821198 0.0812,-0.01811 0.35434,-0.07778 0.606971,-0.132615 1.071635,-0.232595 1.870123,-0.6500811 1.870123,-0.9777861 0,-0.3059155 -0.459914,-0.602208 -1.322623,-0.8520796 C 16.101166,7.4675349 8.4537291,7.6233013 6.2226951,8.7224462 5.9253134,8.8689586 5.6649392,9.1395347 5.6649392,9.3020643 c 0,0.2028571 0.3751749,0.511155 0.8312561,0.6830831 C 7.8015541,10.477228 10.239784,10.773 12.990919,10.773 h 1.532503 v 2.204778 2.204778 l 0.223102,0.223103 c 0.260162,0.260161 0.491352,0.287107 0.807816,0.09415 l 0.210688,-0.128462 0.01897,2.123273 c 0.01802,2.016523 0.02558,2.130602 0.150213,2.269051 0.283318,0.314714 0.662254,0.342184 0.966837,0.07008 z M 5.8475633,7.9260683 C 8.4463097,6.6114092 17.474261,6.5637413 20.447006,7.8489878 20.739813,7.9755753 20.991704,8.0668353 21.006762,8.0517763 21.06371,7.9948291 20.675687,6.7885856 20.435642,6.2763458 19.619879,4.5355436 18.03828,3.0500303 16.27784,2.3711331 L 15.749785,2.1674948 15.593273,2.3362862 15.43676,2.5050775 H 13.238067 11.039373 L 10.879781,2.3328741 10.720189,2.1606722 10.341563,2.3109434 C 8.5048238,3.0399205 7.0370708,4.3464613 6.1783604,6.0168808 5.8198411,6.7142937 5.3690768,8.0826428 5.4978531,8.0826428 c 0.022113,0 0.1794815,-0.070458 0.3497102,-0.1565745 z"
       id="path1"
       sodipodi:nodetypes="csscccsccsssscssscscccscscccccccssscsscssscccsscscccscscscccccccssss" /></g></svg>
