<?xml version="1.0" encoding="UTF-8" standalone="no"?>
<!-- Created with Inkscape (http://www.inkscape.org/) -->

<svg
   width="400"
   height="400"
   viewBox="0 0 105.83333 105.83333"
   version="1.1"
   id="svg1"
   xml:space="preserve"
   inkscape:export-filename="icono-dimension-blanco.svg"
   inkscape:export-xdpi="96"
   inkscape:export-ydpi="96"
   inkscape:version="1.3.2 (091e20e, 2023-11-25)"
   sodipodi:docname="icono-pesado.svg"
   xmlns:inkscape="http://www.inkscape.org/namespaces/inkscape"
   xmlns:sodipodi="http://sodipodi.sourceforge.net/DTD/sodipodi-0.dtd"
   xmlns:xlink="http://www.w3.org/1999/xlink"
   xmlns="http://www.w3.org/2000/svg"
   xmlns:svg="http://www.w3.org/2000/svg"><sodipodi:namedview
     id="namedview1"
     pagecolor="#505050"
     bordercolor="#eeeeee"
     borderopacity="1"
     inkscape:showpageshadow="0"
     inkscape:pageopacity="0"
     inkscape:pagecheckerboard="0"
     inkscape:deskcolor="#505050"
     inkscape:document-units="mm"
     inkscape:zoom="1.0192238"
     inkscape:cx="163.85018"
     inkscape:cy="111.35925"
     inkscape:window-width="1392"
     inkscape:window-height="952"
     inkscape:window-x="0"
     inkscape:window-y="25"
     inkscape:window-maximized="0"
     inkscape:current-layer="layer1" /><defs
     id="defs1"><color-profile
       name="sRGB-IEC61966-2.1"
       xlink:href="file:///System/Library/ColorSync/Profiles/sRGB%20Profile.icc"
       id="color-profile1" /><color-profile
       name="sRGB-IEC61966-2.1"
       xlink:href="file:///System/Library/ColorSync/Profiles/sRGB%20Profile.icc"
       id="color-profile2" /></defs><g
     inkscape:label="Capa 1"
     inkscape:groupmode="layer"
     id="layer1"><path
       style="fill:#000000;stroke-width:0.745017"
       d="M 9.6373565,101.9512 C 5.4120862,100.81329 2.5137896,96.77557 2.9470185,92.630668 3.0857348,91.303494 21.164664,31.151193 21.840918,29.766788 c 1.006102,-2.059659 3.643975,-4.05248 6.036788,-4.560581 0.649419,-0.137901 3.426196,-0.221811 7.340238,-0.221811 h 6.295659 L 40.855866,23.949521 C 37.11776,18.068028 38.089036,10.34446 43.174217,5.5140357 46.163254,2.6747423 49.168479,1.459311 53.247086,1.4401716 c 4.27244,-0.020048 7.373348,1.2299285 10.410099,4.1963166 4.937626,4.8232188 5.854222,12.5292838 2.178239,18.3130328 l -0.657737,1.034875 h 6.29566 c 3.914041,0 6.690818,0.08391 7.340237,0.221811 2.529769,0.537183 5.065953,2.531667 6.12102,4.813642 0.766557,1.657961 18.666786,61.243824 18.810036,62.614424 0.24055,2.301351 -0.66432,4.888452 -2.37544,6.791635 -1.02942,1.144962 -3.035837,2.279192 -4.617776,2.610442 -0.747669,0.15656 -13.130218,0.21504 -43.56332,0.20575 -35.938791,-0.0109 -42.678447,-0.0559 -43.5507475,-0.2909 z M 96.322808,95.944615 c 0.85183,-0.434576 1.571748,-1.576396 1.571748,-2.492872 0,-0.809788 -18.122214,-60.79628 -18.548044,-61.396037 -0.870734,-1.226379 0.670848,-1.157737 -26.000867,-1.157737 -26.671703,0 -25.129605,-0.06866 -26.001242,1.157737 -0.202399,0.284776 -4.468151,14.126157 -9.479449,30.758624 -9.7330825,32.304031 -9.4018338,31.045459 -8.5031317,32.30757 0.9333557,1.310776 -2.7052976,1.210161 43.9423957,1.215116 41.950206,0.0045 42.245963,0.0015 43.01859,-0.392401 z M 65.567028,78.293269 c -4.33416,-0.934229 -8.050901,-4.687275 -8.968052,-9.055637 -0.400235,-1.90632 -0.400235,-8.935236 0,-10.841552 1.113708,-5.304562 6.107032,-9.35631 11.5306,-9.35631 4.238689,0 9.264597,3.006715 9.264597,5.542482 0,0.863239 -0.795663,2.13397 -1.589875,2.539147 -1.325174,0.676053 -2.417536,0.474645 -3.78801,-0.698429 -2.372257,-2.030564 -5.841245,-1.906143 -8.035599,0.288212 -1.544545,1.544545 -1.764685,2.430959 -1.764685,7.105674 0,3.532463 0.0425,4.04119 0.422479,5.056768 0.821311,2.195148 3.151662,3.813593 5.491093,3.813593 2.339432,0 4.669783,-1.618445 5.491093,-3.813593 0.232364,-0.621046 0.42248,-1.347609 0.42248,-1.614579 0,-0.478532 -0.02424,-0.485401 -1.711837,-0.485401 -2.121569,0 -3.131488,-0.416301 -3.77121,-1.554531 -0.542375,-0.965026 -0.546443,-1.832249 -0.01305,-2.781295 0.788206,-1.402422 1.398959,-1.577749 5.496098,-1.577749 3.328744,0 3.649369,0.03166 4.359043,0.430526 1.225576,0.688812 1.555219,1.605475 1.551106,4.313288 -0.0066,4.308004 -0.975844,6.903777 -3.532774,9.460706 -2.943965,2.943964 -6.822137,4.097638 -10.853497,3.22868 z M 34.0249,78.04412 C 33.598162,77.820735 33.1701,77.357029 32.894541,76.81964 L 32.451022,75.954705 V 63.718296 51.481888 l 0.443519,-0.875014 c 0.542317,-1.069934 1.461206,-1.639656 2.644557,-1.639656 0.984652,0 1.690753,0.427914 2.381979,1.443535 0.429963,0.631746 0.443518,0.798374 0.443518,5.45193 v 4.800267 h 0.587452 c 0.571326,0 0.660627,-0.145723 3.253014,-5.30834 1.680185,-3.346009 2.857043,-5.45896 3.183543,-5.715785 1.55144,-1.220362 3.603868,-0.762125 4.526186,1.010543 0.586163,1.126587 0.396934,1.694569 -2.481766,7.449132 l -2.758715,5.514713 2.758715,5.534741 c 2.998397,6.015603 3.154946,6.53368 2.365543,7.828401 -0.845558,1.386826 -2.718773,1.850875 -4.078677,1.010414 -0.576259,-0.356148 -1.075266,-1.217917 -3.424251,-5.913573 -2.682745,-5.36285 -2.76407,-5.496674 -3.340367,-5.496674 h -0.590677 l -7.37e-4,4.878698 c -6.82e-4,4.520472 -0.02949,4.925866 -0.392436,5.521135 -0.818762,1.342878 -2.534298,1.807031 -3.946522,1.067765 z M 55.294802,24.775344 c 1.561695,-0.360029 3.040224,-1.203798 4.271907,-2.437898 3.53798,-3.544922 3.53798,-8.901894 0,-12.4468166 -3.534451,-3.5413871 -8.894799,-3.5403776 -12.444472,0.00231 -3.546157,3.5392126 -3.546157,8.9029166 0,12.4421276 2.198852,2.194546 5.265904,3.110336 8.172565,2.440243 z"
       id="path3" /></g></svg>
