<?xml version="1.0" encoding="UTF-8" standalone="no"?>
<!-- Created with Inkscape (http://www.inkscape.org/) -->

<svg
   width="100"
   height="100"
   viewBox="0 0 26.458332 26.458334"
   version="1.1"
   id="svg1"
   xml:space="preserve"
   inkscape:version="1.4 (e7c3feb1, 2024-10-09)"
   sodipodi:docname="icono-sanitaria-100x100px.svg"
   xmlns:inkscape="http://www.inkscape.org/namespaces/inkscape"
   xmlns:sodipodi="http://sodipodi.sourceforge.net/DTD/sodipodi-0.dtd"
   xmlns="http://www.w3.org/2000/svg"
   xmlns:svg="http://www.w3.org/2000/svg"><sodipodi:namedview
     id="namedview1"
     pagecolor="#505050"
     bordercolor="#eeeeee"
     borderopacity="1"
     inkscape:showpageshadow="0"
     inkscape:pageopacity="0"
     inkscape:pagecheckerboard="0"
     inkscape:deskcolor="#505050"
     inkscape:document-units="mm"
     inkscape:zoom="4.1928019"
     inkscape:cx="50.80135"
     inkscape:cy="54.855918"
     inkscape:window-width="1440"
     inkscape:window-height="775"
     inkscape:window-x="0"
     inkscape:window-y="25"
     inkscape:window-maximized="1"
     inkscape:current-layer="layer1" /><defs
     id="defs1" /><g
     inkscape:label="Capa 1"
     inkscape:groupmode="layer"
     id="layer1"><path
       style="fill:#ffffff;stroke-width:0.264165"
       d="m 5.5671469,26.247593 c 0,-0.01776 0.2289937,-0.308693 0.5088751,-0.646515 0.6981227,-0.842648 1.1125761,-1.39513 1.3258955,-1.767466 0.2206905,-0.3852 0.4026987,-0.988387 0.3992657,-1.32319 C 7.7989232,22.286719 7.7515772,22.224982 7.3421988,21.91154 6.6841784,21.407721 5.3949456,20.053524 4.878601,19.323803 4.4704458,18.746977 3.7103388,17.295334 3.4430244,16.582156 L 3.3316866,16.285109 h 7.9611004 7.961101 l -0.09553,0.409495 c -0.202587,0.868414 -0.580281,1.688229 -1.171528,2.542893 l -0.277596,0.401275 0.04813,0.531185 c 0.10804,1.192314 0.629402,2.766846 1.312962,3.965224 0.35417,0.620911 1.039458,1.596919 1.370916,1.952499 l 0.179167,0.192207 h -7.526633 c -4.1396477,0 -7.5266337,-0.01453 -7.5266337,-0.03229 z M 3.1483423,15.335828 c 0.023334,-0.0608 0.042426,-0.67392 0.042426,-1.362478 v -1.251923 l 5.2245433,-0.01792 5.224543,-0.01792 0.018,-4.3858198 0.018,-4.3858207 h 4.437715 4.437714 v 5.4153362 c 0,5.9061003 0.0031,5.8579143 -0.391491,6.0377153 -0.127293,0.058 -2.717263,0.07939 -9.614052,0.07939 -8.5791655,0 -9.4359505,-0.01011 -9.3973944,-0.110554 z M 13.476945,2.2190303 c 0.02695,-0.8883343 0.136214,-1.2071401 0.503519,-1.46914017 l 0.218537,-0.15588486 3.75482,-0.0192255 c 4.151171,-0.0212597 4.070894,-0.0288915 4.413175,0.41985672 0.21601,0.28320531 0.324072,0.78205681 0.324072,1.49603881 V 3.0053379 H 18.072079 13.45309 Z"
       id="path1" /></g></svg>
