<?xml version="1.0" encoding="UTF-8" standalone="no"?>
<!-- Created with Inkscape (http://www.inkscape.org/) -->

<svg
   width="100"
   height="100"
   viewBox="0 0 26.458332 26.458334"
   version="1.1"
   id="svg1"
   xml:space="preserve"
   inkscape:version="1.4 (e7c3feb1, 2024-10-09)"
   sodipodi:docname="icono-agua-100x100px.svg"
   xmlns:inkscape="http://www.inkscape.org/namespaces/inkscape"
   xmlns:sodipodi="http://sodipodi.sourceforge.net/DTD/sodipodi-0.dtd"
   xmlns="http://www.w3.org/2000/svg"
   xmlns:svg="http://www.w3.org/2000/svg"><sodipodi:namedview
     id="namedview1"
     pagecolor="#505050"
     bordercolor="#eeeeee"
     borderopacity="1"
     inkscape:showpageshadow="0"
     inkscape:pageopacity="0"
     inkscape:pagecheckerboard="0"
     inkscape:deskcolor="#505050"
     inkscape:document-units="mm"
     inkscape:zoom="4.1928019"
     inkscape:cx="60.103006"
     inkscape:cy="51.516862"
     inkscape:window-width="1440"
     inkscape:window-height="775"
     inkscape:window-x="0"
     inkscape:window-y="25"
     inkscape:window-maximized="1"
     inkscape:current-layer="layer1" /><defs
     id="defs1" /><g
     inkscape:label="Capa 1"
     inkscape:groupmode="layer"
     id="layer1"><path
       style="fill:#ffffff;stroke-width:0.82896"
       d="M 11.697765,26.152377 C 9.7540747,25.895177 8.3317341,25.154313 7.0561138,23.734653 5.6848024,22.208496 4.9288386,20.27242 4.8708394,18.138014 4.85078,17.399741 4.8898588,16.868244 5.0137696,16.194185 5.1798363,15.290795 5.4129911,14.628109 5.9757533,13.459986 6.1817522,13.032394 6.4774931,12.415995 6.6329564,12.090211 6.7884196,11.764426 7.3192761,10.656575 7.8126375,9.6283176 8.3060002,8.6000615 9.5224235,6.0636649 10.515801,3.991881 c 0.993375,-2.0717842 1.815705,-3.76688004 1.827397,-3.76688004 0.01165,0 0.409483,0.81214674 0.883976,1.80477034 0.474495,0.9926238 0.999864,2.0879807 1.167487,2.4341265 0.735141,1.5180793 1.455013,3.0386734 1.45468,3.0727374 -2.87e-4,0.029292 -0.845799,1.8092789 -1.696986,3.5725208 -1.071564,2.219759 -1.209209,2.553131 -1.359438,3.292501 -0.27797,1.368072 -0.12226,2.744843 0.452277,3.999015 0.25812,0.563455 0.554186,1.02014 0.956212,1.474973 0.771908,0.873298 1.663093,1.4153 2.752186,1.673829 0.43596,0.103489 1.366583,0.136997 1.78798,0.06437 0.160086,-0.02759 0.291066,-0.04456 0.291066,-0.03774 0,0.03842 -0.198459,0.439377 -0.34392,0.69485 -0.561008,0.985295 -1.330911,1.866562 -2.194309,2.511713 -0.953881,0.712763 -2.245441,1.227595 -3.396987,1.354083 -0.336424,0.03696 -1.168267,0.04623 -1.399657,0.01563 z M 11.032469,22.88553 c 0.08923,-0.02195 0.06811,-0.03551 -0.199587,-0.128158 C 9.3285631,22.236741 8.2590782,20.909625 7.7365911,18.915203 7.5930996,18.367475 7.575892,18.371116 7.5362568,18.957585 c -0.052172,0.771885 0.17336,1.664803 0.6031029,2.387851 0.1776525,0.298905 0.5768214,0.759547 0.8377473,0.966764 0.2805041,0.222766 0.7044909,0.441093 1.028802,0.52977 0.264007,0.07219 0.815075,0.09556 1.02656,0.04355 z m 6.543568,-1.855822 c -1.641733,-0.186373 -3.068677,-1.253294 -3.811109,-2.849553 -0.624099,-1.341837 -0.720023,-2.78632 -0.281422,-4.237765 0.08001,-0.264766 0.390585,-0.962946 0.848621,-1.907711 0.381015,-0.785897 0.436565,-0.901586 1.191026,-2.4804028 0.306497,-0.6413878 0.777984,-1.6242935 1.047752,-2.1842352 0.269768,-0.5599416 0.704019,-1.4647948 0.965004,-2.0107848 0.260983,-0.5459901 0.485529,-0.979135 0.498986,-0.9625443 0.01346,0.01659 0.327818,0.663223 0.698575,1.4369603 0.370758,0.7737375 0.902019,1.881589 1.180582,2.4618922 2.726503,5.6798476 2.609762,5.4224466 2.761826,6.0895816 0.125204,0.549282 0.159811,0.938852 0.13818,1.555242 -0.03559,1.014333 -0.286868,1.882473 -0.784029,2.708811 -0.877575,1.458622 -2.246112,2.310712 -3.845642,2.394402 -0.182956,0.0095 -0.456713,0.0033 -0.60835,-0.01389 z m -0.396056,-2.09577 c 0.01165,-0.01302 -0.09988,-0.07084 -0.247936,-0.128514 -0.871407,-0.339424 -1.545887,-1.199835 -1.85724,-2.369211 -0.04842,-0.181887 -0.09833,-0.319268 -0.110896,-0.305288 -0.01257,0.01399 -0.02284,0.193738 -0.02284,0.399458 0,1.119581 0.638257,2.09066 1.560098,2.373618 0.160627,0.0493 0.642317,0.07055 0.678807,0.02993 z"
       id="path1" /></g></svg>
