<?xml version="1.0" encoding="UTF-8" standalone="no"?>
<!-- Created with Inkscape (http://www.inkscape.org/) -->

<svg
   width="400"
   height="400"
   viewBox="0 0 105.83333 105.83333"
   version="1.1"
   id="svg1"
   xml:space="preserve"
   inkscape:export-filename="icono-dimension-blanco.svg"
   inkscape:export-xdpi="96"
   inkscape:export-ydpi="96"
   inkscape:version="1.3.2 (091e20e, 2023-11-25)"
   sodipodi:docname="icono-precio.svg"
   xmlns:inkscape="http://www.inkscape.org/namespaces/inkscape"
   xmlns:sodipodi="http://sodipodi.sourceforge.net/DTD/sodipodi-0.dtd"
   xmlns:xlink="http://www.w3.org/1999/xlink"
   xmlns="http://www.w3.org/2000/svg"
   xmlns:svg="http://www.w3.org/2000/svg"><sodipodi:namedview
     id="namedview1"
     pagecolor="#505050"
     bordercolor="#eeeeee"
     borderopacity="1"
     inkscape:showpageshadow="0"
     inkscape:pageopacity="0"
     inkscape:pagecheckerboard="0"
     inkscape:deskcolor="#505050"
     inkscape:document-units="mm"
     inkscape:zoom="1.4414001"
     inkscape:cx="199.80573"
     inkscape:cy="182.80837"
     inkscape:window-width="1392"
     inkscape:window-height="952"
     inkscape:window-x="0"
     inkscape:window-y="25"
     inkscape:window-maximized="0"
     inkscape:current-layer="layer1" /><defs
     id="defs1"><color-profile
       name="sRGB-IEC61966-2.1"
       xlink:href="file:///System/Library/ColorSync/Profiles/sRGB%20Profile.icc"
       id="color-profile1" /><color-profile
       name="sRGB-IEC61966-2.1"
       xlink:href="file:///System/Library/ColorSync/Profiles/sRGB%20Profile.icc"
       id="color-profile2" /></defs><g
     inkscape:label="Capa 1"
     inkscape:groupmode="layer"
     id="layer1"><path
       style="fill:#44aa00;stroke-width:0.763804"
       d="M 36.763241,103.77773 C 36.255216,103.63386 35.436752,103.2766 34.944432,102.98382 33.674352,102.22849 2.9760855,71.425353 2.4651465,70.393576 1.4875906,68.419523 1.4846766,65.894061 2.4576465,63.937689 2.7271815,63.39576 10.60767,55.375092 25.732442,40.248879 l 22.867334,-22.869462 1.111495,-0.155114 c 1.310854,-0.182935 11.467263,-0.164109 13.9442,0.02585 l 1.717763,0.131734 0.03228,2.558198 c 0.01809,1.43417 0.21507,3.706601 0.448299,5.171872 0.407692,2.561337 0.408442,2.626085 0.03751,3.233438 -1.021665,1.672855 -1.300449,4.445077 -0.654958,6.512886 1.132074,3.626565 4.242373,5.924759 8.018372,5.924759 2.966542,0 5.356177,-1.261449 6.971217,-3.67999 1.34579,-2.015336 1.767712,-4.575183 1.141458,-6.925353 -0.396917,-1.489531 -0.868051,-2.284471 -2.155356,-3.63671 l -1.155177,-1.21345 -0.332193,-2.222988 c -0.312365,-2.090297 -0.474736,-4.678546 -0.303162,-4.832505 0.135247,-0.121361 6.111295,0.686235 6.84711,0.925311 2.162497,0.702625 2.383863,1.393146 3.325702,10.374069 0.999736,9.533019 1.199188,12.713135 1.210447,19.299581 0.0061,3.501207 -0.06317,6.729593 -0.153685,7.17419 -0.149049,0.73216 -2.329221,2.974363 -23.128162,23.786162 -20.617471,20.630223 -23.082387,23.031113 -24.126254,23.499573 -1.401978,0.62917 -3.332174,0.8153 -4.633441,0.4468 z m -1.89835,-28.028773 c 0.111148,0 0.534649,0.225983 0.941115,0.502183 1.472961,1.000903 4.318289,1.902352 6.046699,1.915697 2.454729,0.01895 4.893859,-0.961361 6.635639,-2.666939 2.003705,-1.962058 2.81862,-3.604646 2.987196,-6.021158 0.140932,-2.020233 -0.358546,-3.964449 -2.038959,-7.93664 -1.987249,-4.697496 -2.246587,-5.817674 -1.641899,-7.09196 0.62706,-1.321432 2.388045,-1.721534 3.986928,-0.905844 1.837324,0.937333 4.265121,3.971575 5.519292,6.897971 0.321921,0.751148 0.636875,1.34226 0.699898,1.313584 1.00793,-0.458622 5.250449,-3.092666 5.250332,-3.259762 -5.53e-4,-0.789706 -2.066266,-4.262875 -3.501027,-5.88642 l -0.714365,-0.80836 1.703593,-1.721758 1.703592,-1.721759 -1.91985,-1.911867 -1.919851,-1.911868 -1.869331,1.847021 -1.869331,1.84702 -0.807341,-0.521178 c -2.134346,-1.377824 -5.026466,-2.044625 -7.319668,-1.687607 -2.874414,0.447505 -5.566764,2.447634 -6.800939,5.052373 -0.597412,1.260844 -0.63251,1.466456 -0.624765,3.659926 0.0094,2.675949 0.234903,3.475908 2.279452,8.087976 1.807576,4.07751 1.969155,5.760111 0.683964,7.122509 -1.025242,1.086833 -2.585003,1.113585 -4.357658,0.07474 -2.259735,-1.324295 -5.016655,-5.116643 -6.079139,-8.362306 -0.316738,-0.967569 -0.382613,-1.040502 -0.758231,-0.839478 -0.529916,0.283603 -5.089029,3.030003 -5.194653,3.129249 -0.167392,0.157283 0.836881,2.435821 1.752873,3.976993 0.524933,0.883209 1.417987,2.164545 1.984565,2.847415 l 1.030141,1.241582 -1.807039,1.896917 -1.807037,1.896917 1.884586,1.892456 1.884587,1.892456 1.927274,-1.920042 c 1.06,-1.056022 2.018211,-1.920041 2.129357,-1.920041 z M 93.764807,49.022574 C 92.036975,47.846622 91.812463,46.34999 93.031257,44.132657 94.800689,40.913582 96.574655,36.038031 97.594051,31.592323 98.858865,26.076329 99.211063,19.566675 98.41508,16.417389 97.278753,11.921548 94.200087,8.5039992 90.129244,7.2194886 88.550576,6.7213561 85.52365,6.624977 83.864456,7.0200135 78.389058,8.3236516 74.366233,13.392706 74.366233,18.988474 c 0,1.619133 0.496823,5.257733 1.323354,9.691896 0.449389,2.410873 0.652296,3.997078 0.566306,4.42703 -0.19304,0.965199 -1.44795,2.147576 -2.460966,2.318724 -1.082276,0.18285 -2.504174,-0.431898 -3.041097,-1.314796 -0.422157,-0.694184 -1.394737,-5.464989 -2.071136,-10.159561 -0.601594,-4.175398 -0.462241,-7.79748 0.401912,-10.446485 1.987139,-6.0914496 6.82518,-10.6578776 13.096731,-12.3614656 2.281675,-0.61978903 6.354199,-0.62633203 8.798556,-0.01414 4.211261,1.054723 8.042189,3.69887 10.468607,7.2255336 0.9848,1.4313592 2.38356,4.527576 2.82481,6.252839 1.45059,5.67173 0.63926,14.899619 -2.0505,23.322379 -1.27106,3.980186 -3.706756,9.441091 -4.685517,10.505073 -1.034856,1.124958 -2.619772,1.3716 -3.772486,0.587069 z"
       id="path3" /></g></svg>
