<?xml version="1.0" encoding="UTF-8" standalone="no"?>
<!-- Created with Inkscape (http://www.inkscape.org/) -->

<svg
   width="100"
   height="100"
   viewBox="0 0 26.458332 26.458334"
   version="1.1"
   id="svg1"
   xml:space="preserve"
   inkscape:version="1.4 (e7c3feb1, 2024-10-09)"
   sodipodi:docname="icono-red-100x100px.svg"
   xmlns:inkscape="http://www.inkscape.org/namespaces/inkscape"
   xmlns:sodipodi="http://sodipodi.sourceforge.net/DTD/sodipodi-0.dtd"
   xmlns="http://www.w3.org/2000/svg"
   xmlns:svg="http://www.w3.org/2000/svg"><sodipodi:namedview
     id="namedview1"
     pagecolor="#505050"
     bordercolor="#eeeeee"
     borderopacity="1"
     inkscape:showpageshadow="0"
     inkscape:pageopacity="0"
     inkscape:pagecheckerboard="0"
     inkscape:deskcolor="#505050"
     inkscape:document-units="mm"
     inkscape:zoom="4.1928019"
     inkscape:cx="46.746782"
     inkscape:cy="46.03127"
     inkscape:window-width="1440"
     inkscape:window-height="775"
     inkscape:window-x="0"
     inkscape:window-y="25"
     inkscape:window-maximized="1"
     inkscape:current-layer="layer1" /><defs
     id="defs1" /><g
     inkscape:label="Capa 1"
     inkscape:groupmode="layer"
     id="layer1"><path
       style="fill:#ffffff;stroke-width:0.107065"
       d="m 12.909417,24.439168 c -0.524551,-0.07512 -0.806616,-0.158357 -1.192646,-0.351944 -0.25888,-0.129822 -0.656937,-0.404523 -0.773871,-0.534049 -0.05396,-0.05978 -0.05374,-0.061 0.02832,-0.151839 l 0.08274,-0.09158 -0.09458,0.08498 -0.09459,0.08498 -0.150405,-0.168878 C 10.395106,22.952335 10.135212,22.454481 10.001252,21.944739 9.9116145,21.60368 9.8790914,20.955436 9.9342614,20.609545 10.101436,19.56137 10.78867,18.624037 11.743127,18.142393 c 0.26916,-0.135824 0.723059,-0.276636 1.017537,-0.315665 0.35321,-0.04681 0.94591,-0.02058 1.23102,0.0545 1.132419,0.298199 2.027038,1.105836 2.36974,2.139338 0.148506,0.447853 0.181319,0.644721 0.182309,1.093793 0.0012,0.544792 -0.09658,0.989742 -0.320982,1.46068 -0.382127,0.801928 -1.207569,1.505722 -2.0405,1.73978 -0.405023,0.113816 -0.964608,0.168478 -1.272835,0.124345 z m -1.740364,-1.235638 0.08319,-0.09206 -0.09206,0.08319 c -0.08582,0.07755 -0.10509,0.100932 -0.08321,0.100932 0.0048,0 0.0463,-0.04143 0.09206,-0.09206 z M 8.4513904,16.401508 7.3218549,15.289124 7.5659891,15.06569 c 0.9660839,-0.884171 2.2573988,-1.570079 3.5729549,-1.897847 2.803341,-0.698444 5.690084,0.02046 7.812334,1.945587 l 0.135555,0.122969 -1.125104,1.12602 c -0.618807,0.619313 -1.133144,1.126023 -1.142972,1.126023 -0.0098,0 -0.05531,-0.0395 -0.101074,-0.08778 -0.135853,-0.143321 -0.603052,-0.484229 -0.883751,-0.644861 -0.503773,-0.288287 -1.113285,-0.510946 -1.678112,-0.613028 -0.356121,-0.06437 -1.191568,-0.08793 -1.550827,-0.04376 -1.033196,0.127041 -2.011447,0.555894 -2.7769778,1.217414 -0.1275096,0.110183 -0.2352769,0.199697 -0.2394714,0.198907 -0.00426,-7.92e-4 -0.5159201,-0.50201 -1.1371647,-1.113823 z M 4.9583652,12.914094 3.7737732,11.738619 3.957903,11.567381 c 1.8558749,-1.7259531 4.0897591,-2.8728059 6.586162,-3.3812678 0.820351,-0.1670864 1.461,-0.2383405 2.365352,-0.2630776 3.07055,-0.083989 6.059817,0.8634313 8.512438,2.6979344 0.373283,0.279206 0.809198,0.641191 1.061957,0.881849 l 0.184457,0.175625 -1.180381,1.181761 -1.180384,1.181762 -0.235996,-0.211721 c -1.6607,-1.489871 -3.686728,-2.364985 -5.958168,-2.573542 -0.458074,-0.04206 -1.400041,-0.03488 -1.877509,0.0143 -2.192247,0.225829 -4.286246,1.151547 -5.832759,2.578552 L 6.1429572,14.089572 Z M 1.3559509,9.3366596 0.18454408,8.1828311 0.57000733,7.8320293 C 2.7978934,5.8044819 5.2930645,4.4143151 8.1508617,3.6084134 11.27408,2.7276621 14.635253,2.6736755 17.810791,3.4532578 c 0.864755,0.2122937 1.710826,0.4875902 2.6196,0.8523705 0.628746,0.252377 1.940061,0.9110593 2.542477,1.2770996 1.104617,0.6711906 2.187699,1.4860998 3.062505,2.3042259 l 0.22274,0.2083092 -0.08111,0.068253 c -0.04461,0.037546 -0.51499,0.4970306 -1.045296,1.0210857 -0.530306,0.5240551 -1.036507,1.0220013 -1.124894,1.1065463 l -0.1607,0.153721 -0.248994,-0.226676 C 22.437201,9.1622343 21.072281,8.2550317 19.693867,7.6238705 18.082887,6.8862191 16.430633,6.4484437 14.566575,6.2653583 14.079872,6.2175529 12.358166,6.2173258 11.889619,6.265005 10.654697,6.3906699 9.7591861,6.5659225 8.6792965,6.8932856 6.519549,7.5480047 4.5228843,8.6951697 2.7986015,10.271984 2.6665653,10.392725 2.5515172,10.491288 2.5429423,10.491003 2.5344284,10.490714 2.0002205,9.9712604 1.3559452,9.336654 Z"
       id="path1" /></g></svg>
