<?xml version="1.0" encoding="UTF-8" standalone="no"?>
<!-- Created with Inkscape (http://www.inkscape.org/) -->

<svg
   width="100"
   height="100"
   viewBox="0 0 26.458332 26.458334"
   version="1.1"
   id="svg1"
   xml:space="preserve"
   inkscape:version="1.4 (e7c3feb1, 2024-10-09)"
   sodipodi:docname="icono-energia-100x100px.svg"
   xmlns:inkscape="http://www.inkscape.org/namespaces/inkscape"
   xmlns:sodipodi="http://sodipodi.sourceforge.net/DTD/sodipodi-0.dtd"
   xmlns="http://www.w3.org/2000/svg"
   xmlns:svg="http://www.w3.org/2000/svg"><sodipodi:namedview
     id="namedview1"
     pagecolor="#505050"
     bordercolor="#eeeeee"
     borderopacity="1"
     inkscape:showpageshadow="0"
     inkscape:pageopacity="0"
     inkscape:pagecheckerboard="0"
     inkscape:deskcolor="#505050"
     inkscape:document-units="mm"
     inkscape:zoom="4.1928019"
     inkscape:cx="62.72655"
     inkscape:cy="41.022687"
     inkscape:window-width="1440"
     inkscape:window-height="775"
     inkscape:window-x="0"
     inkscape:window-y="25"
     inkscape:window-maximized="1"
     inkscape:current-layer="layer1" /><defs
     id="defs1" /><g
     inkscape:label="Capa 1"
     inkscape:groupmode="layer"
     id="layer1"><path
       style="fill:#ffffff;stroke-width:0.109092"
       d="m 9.2043204,26.139004 c 0.056661,-0.162716 0.3407332,-0.984256 0.631269,-1.82564 0.2905356,-0.841378 0.7102636,-2.05583 0.9327276,-2.69877 0.222465,-0.642948 0.763032,-2.208087 1.201261,-3.478098 0.438228,-1.270011 0.809476,-2.338951 0.824996,-2.375415 0.01552,-0.03643 0.02822,-0.07868 0.02822,-0.09381 0,-0.01726 -1.330099,-0.02748 -3.5791216,-0.02748 -1.9685168,0 -3.5791214,-0.0067 -3.5791214,-0.01493 0,-0.0083 0.4454694,-0.556996 0.9899324,-1.219503 0.5444629,-0.662504 1.9237138,-2.341065 3.0650011,-3.730141 1.1412865,-1.3890746 2.6089705,-3.1750313 3.2615165,-3.9687874 0.652546,-0.7937562 1.970817,-2.3978654 2.929488,-3.5646878 2.135463,-2.59912205 2.110477,-2.56888653 2.122897,-2.56888653 0.01088,0 -0.0087,0.0580418 -0.433053,1.28444323 -0.829508,2.3972798 -1.714936,4.9597326 -2.423589,7.0139226 -0.438127,1.2700119 -0.809293,2.3389519 -0.824812,2.3754149 -0.01552,0.03643 -0.02822,0.07868 -0.02822,0.09381 0,0.01726 1.330099,0.02748 3.579122,0.02748 1.968517,0 3.579122,0.006 3.579122,0.014 0,0.0077 -0.574076,0.712326 -1.275724,1.565862 -0.701646,0.853544 -1.782274,2.168861 -2.401393,2.922933 -0.619119,0.754067 -1.510164,1.83863 -1.980102,2.410135 -0.469939,0.571505 -1.307484,1.591123 -1.861214,2.265815 -0.55373,0.674693 -1.093087,1.330623 -1.198571,1.457624 -0.105486,0.127002 -0.88482,1.075178 -1.731857,2.107062 -1.8983824,2.312667 -1.9073744,2.323546 -1.9208325,2.323546 -0.00604,0 0.035389,-0.133135 0.092053,-0.295858 z"
       id="path1" /></g></svg>
