<?xml version="1.0" encoding="UTF-8" standalone="no"?>
<!-- Created with Inkscape (http://www.inkscape.org/) -->

<svg
   width="400"
   height="400"
   viewBox="0 0 105.83333 105.83333"
   version="1.1"
   id="svg1"
   xml:space="preserve"
   sodipodi:docname="icono-dimension.svg"
   inkscape:version="1.3.2 (091e20e, 2023-11-25)"
   xmlns:inkscape="http://www.inkscape.org/namespaces/inkscape"
   xmlns:sodipodi="http://sodipodi.sourceforge.net/DTD/sodipodi-0.dtd"
   xmlns:xlink="http://www.w3.org/1999/xlink"
   xmlns="http://www.w3.org/2000/svg"
   xmlns:svg="http://www.w3.org/2000/svg"><sodipodi:namedview
     id="namedview1"
     pagecolor="#505050"
     bordercolor="#eeeeee"
     borderopacity="1"
     inkscape:showpageshadow="0"
     inkscape:pageopacity="0"
     inkscape:pagecheckerboard="0"
     inkscape:deskcolor="#505050"
     inkscape:document-units="mm"
     inkscape:zoom="1.775"
     inkscape:cx="200"
     inkscape:cy="199.71831"
     inkscape:window-width="1392"
     inkscape:window-height="952"
     inkscape:window-x="0"
     inkscape:window-y="25"
     inkscape:window-maximized="0"
     inkscape:current-layer="layer1" /><defs
     id="defs1"><color-profile
       name="sRGB-IEC61966-2.1"
       xlink:href="file:///System/Library/ColorSync/Profiles/sRGB%20Profile.icc"
       id="color-profile2" /></defs><g
     inkscape:label="Capa 1"
     inkscape:groupmode="layer"
     id="layer1"><path
       style="fill:#ff6600;stroke-width:0.704565"
       d="m 19.140585,99.861984 c -0.340434,-0.17357 -0.843757,-0.610017 -1.118497,-0.969881 -0.495167,-0.648587 -0.50003,-0.684922 -0.557428,-4.164726 l -0.0579,-3.510433 h 2.993958 2.993957 v 3.280716 c 0,3.682762 -0.127661,4.200603 -1.245797,5.053454 -0.811669,0.619076 -2.13545,0.755876 -3.008289,0.31087 z m 65.618497,0 c -0.340439,-0.17357 -0.843759,-0.610017 -1.118498,-0.969881 -0.495168,-0.648587 -0.500036,-0.684922 -0.55743,-4.164726 l -0.05792,-3.510433 h 2.993958 2.993958 v 3.280716 c 0,3.682762 -0.12766,4.200603 -1.245798,5.053454 -0.811666,0.619076 -2.135452,0.755876 -3.008289,0.31087 z M 7.2099501,87.920784 C 6.8695155,87.75302 6.3661918,87.321051 6.091453,86.96085 5.4374496,86.103408 5.379819,84.444566 5.9762777,83.645673 c 0.9220679,-1.235004 1.080619,-1.278045 4.9415523,-1.3414 l 3.528866,-0.05791 v 2.993958 2.993958 l -3.308888,-0.0042 C 8.4568549,88.226523 7.7114581,88.167903 7.2099501,87.920784 Z M 17.429354,52.442386 V 16.650478 H 53.22126 89.013168 V 52.442386 88.234288 H 53.22126 17.429354 Z m 65.618494,0 V 22.615791 H 53.22126 23.394672 V 52.442386 82.268974 H 53.22126 83.047848 Z M 31.071221,75.990151 c -0.340434,-0.167764 -0.843758,-0.599733 -1.118497,-0.959935 l -0.499525,-0.654907 v -7.038057 c 0,-6.817626 0.01204,-7.054169 0.38435,-7.552847 1.318206,-1.76559 3.588196,-1.815431 4.892429,-0.10741 0.482794,0.632262 0.50571,0.767637 0.59533,3.517027 l 0.09321,2.859449 15.751753,-15.75352 15.751755,-15.753519 h -2.674452 c -3.03447,0 -3.625079,-0.167968 -4.465663,-1.270035 -0.410781,-0.538562 -0.502123,-0.853454 -0.502123,-1.731046 0,-1.159003 0.310217,-1.760018 1.283495,-2.486678 0.498734,-0.372356 0.735045,-0.384354 7.571271,-0.384354 6.836232,0 7.072543,0.01198 7.571269,0.384354 0.283144,0.211391 0.687755,0.615882 0.899152,0.89887 0.36927,0.494337 0.38644,0.78106 0.437606,7.309729 0.05953,7.59603 0.05397,7.635084 -1.230079,8.614464 -0.535484,0.40843 -0.855039,0.502123 -1.712629,0.502123 -0.85759,0 -1.177144,-0.09369 -1.712627,-0.502123 -1.10206,-0.840588 -1.270028,-1.43119 -1.270028,-4.465667 v -2.674445 l -15.753523,15.751751 -15.75352,15.751751 2.85945,0.09321 c 2.749386,0.08962 2.884761,0.11254 3.517027,0.595336 1.353042,1.033175 1.637087,2.837235 0.650392,4.130859 -0.9343,1.224929 -1.033586,1.239598 -8.357248,1.234885 -5.719028,-0.0035 -6.671376,-0.04453 -7.208573,-0.309262 z m 60.924604,9.26148 v -2.982657 h 3.280716 c 3.697156,0 4.199095,0.125688 5.071929,1.270028 0.40843,0.535484 0.50212,0.855039 0.50212,1.712629 0,0.85759 -0.0937,1.177145 -0.50212,1.712629 -0.872834,1.14434 -1.374773,1.270028 -5.071929,1.270028 H 91.995825 Z M 7.2099501,22.302288 C 6.8695155,22.134531 6.3661918,21.702562 6.091453,21.34236 5.4374496,20.484919 5.379819,18.826077 5.9762777,18.027184 c 0.9220679,-1.235011 1.080619,-1.278053 4.9415523,-1.3414 l 3.528866,-0.05791 v 2.993957 2.993958 l -3.308888,-0.0042 C 8.4568549,22.608034 7.7114581,22.549414 7.2099501,22.302295 Z M 91.995825,19.633135 v -2.982657 h 3.280716 c 3.697156,0 4.199095,0.125687 5.071929,1.270028 0.40843,0.535484 0.50212,0.855039 0.50212,1.712629 0,0.857589 -0.0937,1.177145 -0.50212,1.712628 -0.872834,1.144341 -1.374773,1.270028 -5.071929,1.270028 H 91.995825 Z M 17.46466,10.138951 c 0.06335,-3.8609325 0.10639,-4.0194808 1.3414,-4.9415522 0.800512,-0.5976685 2.457695,-0.5388585 3.318581,0.1177751 1.144343,0.8728293 1.270031,1.3747756 1.270031,5.0719321 v 3.280715 h -2.993957 -2.993958 z m 65.618494,0 c 0.06334,-3.8609325 0.106389,-4.0194808 1.3414,-4.9415522 0.800513,-0.5976685 2.457692,-0.5388585 3.318579,0.1177751 1.144348,0.8728293 1.270035,1.3747756 1.270035,5.0719321 v 3.280715 H 86.01921 83.025252 Z"
       id="path2" /></g></svg>
