<?xml version="1.0" encoding="UTF-8" standalone="no"?>
<!-- Created with Inkscape (http://www.inkscape.org/) -->

<svg
   width="100"
   height="100"
   viewBox="0 0 26.458332 26.458334"
   version="1.1"
   id="svg1"
   xml:space="preserve"
   inkscape:version="1.3.2 (091e20e, 2023-11-25)"
   sodipodi:docname="icono-pavimento-100x100px.svg"
   xmlns:inkscape="http://www.inkscape.org/namespaces/inkscape"
   xmlns:sodipodi="http://sodipodi.sourceforge.net/DTD/sodipodi-0.dtd"
   xmlns="http://www.w3.org/2000/svg"
   xmlns:svg="http://www.w3.org/2000/svg"><sodipodi:namedview
     id="namedview1"
     pagecolor="#505050"
     bordercolor="#eeeeee"
     borderopacity="1"
     inkscape:showpageshadow="0"
     inkscape:pageopacity="0"
     inkscape:pagecheckerboard="0"
     inkscape:deskcolor="#505050"
     inkscape:document-units="mm"
     inkscape:zoom="2.9647587"
     inkscape:cx="32.380375"
     inkscape:cy="30.356602"
     inkscape:window-width="1424"
     inkscape:window-height="765"
     inkscape:window-x="0"
     inkscape:window-y="25"
     inkscape:window-maximized="0"
     inkscape:current-layer="layer1" /><defs
     id="defs1" /><g
     inkscape:label="Capa 1"
     inkscape:groupmode="layer"
     id="layer1"><path
       style="fill:#4d4d4d;stroke-width:0.285032"
       d="m 0.16653271,22.647393 c 0.0217637,-0.07258 0.31129824,-0.929486 0.64342005,-1.90422 C 1.142073,19.768438 1.9567974,17.375905 2.6204527,15.426436 3.2841065,13.476966 4.3427094,10.371764 4.9729025,8.5259892 5.6030971,6.6802141 6.1898155,4.9579317 6.2767213,4.698693 L 6.4347261,4.2273517 h 0.736405 c 0.5571058,0 0.7280676,0.022954 0.7021664,0.094273 C 7.8412625,4.4098369 5.2751046,14.796118 4.0209583,19.913616 3.7109251,21.178698 3.4232631,22.341027 3.3817093,22.49657 L 3.306163,22.779375 H 1.7165641 c -1.47869784,0 -1.58683708,-0.0092 -1.55003139,-0.131982 z m 4.42749419,0.06565 c 0,-0.03647 0.1009109,-0.469171 0.2242591,-0.961536 C 5.1819075,20.299967 8.6492053,6.2376014 8.9020594,5.1888839 l 0.2318329,-0.961537 h 4.1331517 4.133153 l 0.354034,1.4517327 c 0.344685,1.4133918 1.380051,5.6166714 2.911849,11.8212554 0.825469,3.343583 1.273332,5.18814 1.273332,5.244327 0,0.01995 -1.518664,0.02742 -3.374808,0.01662 l -3.37481,-0.01963 -0.08821,-1.282049 c -0.04853,-0.705128 -0.09094,-1.307504 -0.09427,-1.338612 -0.0034,-0.0311 -0.782736,-0.05656 -1.732024,-0.05656 h -1.725973 l -0.04333,0.320514 c -0.02384,0.176281 -0.06339,0.710783 -0.08793,1.187782 -0.02453,0.476997 -0.06042,0.943626 -0.07979,1.036953 l -0.0352,0.169682 H 7.948545 c -1.8796328,0 -3.3545181,-0.02916 -3.3545181,-0.06632 z M 14.823616,17.292946 c -0.02033,-0.07258 -0.05811,-0.505279 -0.08392,-0.961538 -0.02581,-0.45626 -0.06622,-0.973792 -0.08979,-1.150072 l -0.04285,-0.320514 h -1.3429 -1.3429 l -0.04838,0.471342 c -0.0266,0.259236 -0.07243,0.83616 -0.101816,1.28205 l -0.05343,0.810707 h 1.571481 c 1.46046,0 1.56887,-0.0093 1.534506,-0.131981 z m -0.476109,-6.221715 c -0.05071,-0.63254 -0.09405,-1.2094635 -0.0963,-1.2820493 -0.0037,-0.1187209 -0.102617,-0.1319816 -0.984488,-0.1319816 -0.73157,0 -0.981564,0.023917 -0.985015,0.094267 -0.0026,0.051854 -0.04605,0.6287709 -0.09668,1.2820509 l -0.09205,1.187781 h 1.173367 1.17337 z M 13.969964,5.9053237 c -0.04878,-0.6118015 -0.09122,-1.1887246 -0.09431,-1.2820503 -0.0053,-0.1613593 -0.03522,-0.1696823 -0.608935,-0.1696823 -0.522751,0 -0.603865,0.017616 -0.607412,0.1319814 -0.0022,0.072589 -0.04559,0.6495088 -0.0963,1.2820502 l -0.0922,1.1500738 h 0.793929 0.793927 z m 9.18146,16.5912373 c -0.04173,-0.155545 -0.346364,-1.385746 -0.67699,-2.733784 -0.330627,-1.348038 -0.961707,-3.910253 -1.402402,-5.69381 -0.440693,-1.783558 -1.155881,-4.6851385 -1.589304,-6.4479592 -0.433424,-1.7628187 -0.80352,-3.2475459 -0.822435,-3.2993932 -0.02602,-0.071319 0.144712,-0.094273 0.701479,-0.094273 h 0.735872 l 3.126765,9.1753554 c 1.71972,5.046446 3.137736,9.22065 3.151149,9.27601 0.01974,0.08151 -0.277311,0.10065 -1.561949,0.10065 h -1.586333 z"
       id="path1" /></g></svg>
