<?xml version="1.0" encoding="UTF-8" standalone="no"?>
<!-- Created with Inkscape (http://www.inkscape.org/) -->

<svg
   width="400"
   height="400"
   viewBox="0 0 105.83333 105.83333"
   version="1.1"
   id="svg1"
   xml:space="preserve"
   inkscape:export-filename="icono-dimension-blanco.svg"
   inkscape:export-xdpi="96"
   inkscape:export-ydpi="96"
   inkscape:version="1.3.2 (091e20e, 2023-11-25)"
   sodipodi:docname="icono-ligero-blanco.svg"
   xmlns:inkscape="http://www.inkscape.org/namespaces/inkscape"
   xmlns:sodipodi="http://sodipodi.sourceforge.net/DTD/sodipodi-0.dtd"
   xmlns:xlink="http://www.w3.org/1999/xlink"
   xmlns="http://www.w3.org/2000/svg"
   xmlns:svg="http://www.w3.org/2000/svg"><sodipodi:namedview
     id="namedview1"
     pagecolor="#505050"
     bordercolor="#eeeeee"
     borderopacity="1"
     inkscape:showpageshadow="0"
     inkscape:pageopacity="0"
     inkscape:pagecheckerboard="0"
     inkscape:deskcolor="#505050"
     inkscape:document-units="mm"
     inkscape:zoom="2.0384476"
     inkscape:cx="216.3411"
     inkscape:cy="246.02055"
     inkscape:window-width="1392"
     inkscape:window-height="952"
     inkscape:window-x="0"
     inkscape:window-y="25"
     inkscape:window-maximized="0"
     inkscape:current-layer="layer1" /><defs
     id="defs1"><color-profile
       name="sRGB-IEC61966-2.1"
       xlink:href="file:///System/Library/ColorSync/Profiles/sRGB%20Profile.icc"
       id="color-profile1" /><color-profile
       name="sRGB-IEC61966-2.1"
       xlink:href="file:///System/Library/ColorSync/Profiles/sRGB%20Profile.icc"
       id="color-profile2" /></defs><g
     inkscape:label="Capa 1"
     inkscape:groupmode="layer"
     id="layer1"><path
       style="fill:#b3b3b3;stroke-width:2.78245"
       d="M 25.575994,100.90198 C 16.011246,96.703185 11.796962,92.927045 8.2071248,85.33889 5.2741068,79.139111 5.4126309,78.199952 9.6484958,75.566795 l 3.5565032,-2.210845 1.727187,2.520668 c 3.186732,4.65073 11.793596,11.917286 17.393572,14.684943 2.982295,1.473924 5.422352,2.820294 5.422352,2.991924 0,0.90916 -6.843929,9.030025 -7.588965,9.004925 -0.482462,-0.0161 -2.544881,-0.76166 -4.583151,-1.65643 z m 6.6507,-13.160272 c -6.45764,-3.833485 -17.8874,-15.044986 -16.624929,-16.30746 0.646701,-0.646699 1.324001,-0.231778 2.79924,1.714858 3.518599,4.642914 9.315831,9.645844 15.114017,13.043183 5.370402,3.146688 6.900806,4.621893 4.785229,4.612639 -0.50613,-0.0022 -3.239232,-1.380664 -6.073557,-3.06322 z m 1.402464,-4.163722 c -4.687397,-3.034021 -13.55877,-11.48198 -13.535075,-12.889074 0.0081,-0.473737 1.759116,-3.010056 3.891418,-5.636265 4.372416,-5.385199 9.98089,-8.751099 14.866893,-8.922294 1.619614,-0.05676 9.206279,0.341144 16.859252,0.884208 12.199528,0.865694 13.956473,1.147898 14.255052,2.28967 0.268562,1.027028 1.762232,-0.04224 7.066881,-5.058938 10.039605,-9.494643 16.775879,-13.481218 22.799786,-13.493077 1.147225,-0.0023 1.975445,0.326701 1.840475,0.731018 -0.13498,0.40432 -4.055177,5.409676 -8.71157,11.123015 -4.656395,5.713338 -10.457634,13.250553 -12.891645,16.749362 -3.005451,4.320231 -5.249585,6.753233 -6.993795,7.582385 -1.868621,0.888296 -6.057574,1.397534 -15.376014,1.869211 l -12.807696,0.648296 -3.139929,3.468158 c -1.726958,1.907489 -3.283225,3.46816 -3.458369,3.46816 -0.175127,0 -2.274691,-1.266227 -4.665664,-2.813835 z M 54.366175,65.840778 c 8.096252,-0.392002 9.162029,-0.611632 11.963068,-2.465306 1.691243,-1.11923 3.074984,-2.157158 3.074984,-2.306503 0,-0.149334 -1.40796,0.228912 -3.128802,0.840599 -1.72084,0.611677 -6.607294,1.339325 -10.858785,1.616994 -5.023131,0.328067 -8.567816,0.946271 -10.122594,1.765412 -2.484062,1.308737 -3.367266,2.54667 -1.104284,1.547805 0.708581,-0.312764 5.287967,-0.762315 10.176413,-0.999001 z M 50.631414,45.961253 48.422848,45.374346 50.999507,44.360328 53.576169,43.34631 47.794791,42.866132 C 43.064647,42.473268 40.922854,41.83771 36.015768,39.370818 32.717067,37.712491 29.189913,35.656712 28.177654,34.80242 c -1.741525,-1.469752 -1.393752,-1.527763 1.706326,-0.284627 0.736027,0.295148 -0.443822,-1.246675 -2.621884,-3.426271 -6.16225,-6.16659 -9.423448,-14.702097 -9.37128,-24.5273531 l 0.01975,-3.729785 2.004712,2.292668 c 1.102595,1.260969 3.300716,3.246121 4.884715,4.411452 1.583999,1.1653301 3.487651,3.1151951 4.230334,4.3330331 0.908922,1.490428 1.351236,1.801164 1.353086,0.950573 0.0021,-0.981937 1.065341,-0.520874 4.76874,2.067989 2.621295,1.832416 5.437217,4.18499 6.257607,5.227949 1.454354,1.84891 1.491616,1.855769 1.491616,0.274488 0,-1.618485 0.0042,-1.61893 2.024519,-0.21909 3.278796,2.271753 4.509126,2.542157 14.171635,3.114681 5.061297,0.299895 9.864928,0.7847 10.674737,1.077349 1.186207,0.428672 1.114662,0.235785 -0.368095,-0.992448 L 67.5637,23.84849 71.244645,23.81933 c 4.459811,-0.03531 12.926994,-1.758851 15.88147,-3.232738 3.220904,-1.606798 2.620182,-0.212634 -1.822794,4.230336 -6.639628,6.639629 -13.731563,9.256706 -25.167794,9.287463 -7.592639,0.02031 -15.719454,-1.761347 -21.580693,-4.731461 -4.548609,-2.304956 -4.960305,-1.902013 -0.622734,0.60949 8.506247,4.92521 22.593462,6.90674 32.500508,4.571578 13.372071,-3.151894 23.814869,-13.595858 25.150833,-25.1536401 0.63098,-5.458772 1.016065,-6.934092 1.809933,-6.934092 1.088079,0 0.867731,5.4833 -0.420057,10.4530371 -0.628218,2.424382 -2.937492,8.156721 -5.131715,12.738533 -4.21939,8.810607 -6.231658,11.071069 -13.667842,15.353657 -3.891988,2.241444 -4.957365,2.459563 -3.52236,0.721157 0.555707,-0.673202 0.679092,-1.072438 0.274182,-0.887194 -0.404901,0.185255 -3.029814,1.45673 -5.833136,2.825518 -4.203934,2.052672 -6.074211,2.522736 -10.674737,2.682932 -3.067783,0.106818 -6.571645,-0.06987 -7.786356,-0.392678 z"
       id="path3"
       sodipodi:nodetypes="ssscssscsssssssscssssssssssscsssssssssssccccsssssccssssssssssscssscsssssssssssscc" /></g></svg>
