<?xml version="1.0" encoding="UTF-8" standalone="no"?>
<!-- Created with Inkscape (http://www.inkscape.org/) -->

<svg
   width="80"
   height="80"
   viewBox="0 0 21.166666 21.166667"
   version="1.1"
   id="svg1"
   xml:space="preserve"
   inkscape:version="1.4 (e7c3feb100, 2024-10-09)"
   sodipodi:docname="imgEnvios.svg"
   xmlns:inkscape="http://www.inkscape.org/namespaces/inkscape"
   xmlns:sodipodi="http://sodipodi.sourceforge.net/DTD/sodipodi-0.dtd"
   xmlns="http://www.w3.org/2000/svg"
   xmlns:svg="http://www.w3.org/2000/svg"><sodipodi:namedview
     id="namedview1"
     pagecolor="#505050"
     bordercolor="#eeeeee"
     borderopacity="1"
     inkscape:showpageshadow="0"
     inkscape:pageopacity="0"
     inkscape:pagecheckerboard="0"
     inkscape:deskcolor="#505050"
     inkscape:document-units="mm"
     inkscape:zoom="5.7656004"
     inkscape:cx="46.569304"
     inkscape:cy="26.970305"
     inkscape:window-width="1920"
     inkscape:window-height="1012"
     inkscape:window-x="0"
     inkscape:window-y="32"
     inkscape:window-maximized="1"
     inkscape:current-layer="layer1" /><defs
     id="defs1" /><g
     inkscape:label="Capa 1"
     inkscape:groupmode="layer"
     id="layer1"><path
       style="fill:#d27f32;stroke-width:0.148756;fill-opacity:1"
       d="M 6.4848304,15.735981 C 5.7902257,15.549178 5.1814557,14.960582 4.9732069,14.274456 L 4.8863948,13.988443 4.7411768,13.98807 C 4.601857,13.987713 4.5954624,13.981747 4.583743,13.840109 l -0.012217,-0.147593 -0.2263101,-0.0118 -0.2263101,-0.0118 v -0.960349 -0.960351 l 0.2263101,-0.01181 0.2263101,-0.01181 v -0.354205 -0.354225 l -2.0564701,-0.01023 c -1.1310589,-0.0056 -2.05647129,-0.01952 -2.05647129,-0.0309 0,-0.01136 0.18643958,-0.268049 0.41431012,-0.570343 L 1.2872052,9.8550863 H 2.9392048 4.5912055 V 9.4221452 8.9892039 H 3.1316692 c -0.8027451,0 -1.4536324,-0.015068 -1.4464171,-0.033487 C 1.6924521,8.9372989 1.8843397,8.6722998 2.111634,8.36683 L 2.5248956,7.811431 3.558051,7.8099674 4.5912064,7.8085038 V 5.9783508 4.1481897 h 4.82139 4.8213916 V 4.8566388 5.565088 h 2.005919 2.00592 l 0.137201,0.4427805 c 0.75309,2.4303901 1.675988,5.5243415 1.675988,5.6186375 v 0.117833 h 0.255829 0.25583 v 0.964278 0.964278 h -0.25583 -0.255829 v 0.156602 0.156601 l -0.774783,0.01067 -0.774783,0.01067 -0.04825,0.189261 c -0.174488,0.684393 -0.755145,1.285413 -1.457282,1.508384 -0.351383,0.111585 -0.858726,0.125335 -1.213638,0.03289 -0.707511,-0.184285 -1.317751,-0.768661 -1.528519,-1.463735 l -0.08681,-0.286281 -2.477003,0.0097 -2.4770055,0.0097 -0.045362,0.177113 C 8.9970498,14.881451 8.426014,15.480634 7.7310453,15.700174 7.368248,15.81478 6.8349203,15.830083 6.4848205,15.735927 Z M 7.4795881,14.694443 C 8.1120549,14.457807 8.3991675,13.705395 8.0917506,13.090198 7.9012274,12.708928 7.5750863,12.492318 7.145239,12.461563 6.6645027,12.427171 6.2436344,12.664281 6.0168473,13.09729 c -0.1455296,0.277863 -0.1518248,0.742833 -0.013657,1.008491 0.2926106,0.562595 0.8994144,0.804538 1.4763936,0.588662 z m 9.2885559,0 c 0.43523,-0.16284 0.694686,-0.532434 0.724522,-1.032071 0.01687,-0.282607 0.0089,-0.324734 -0.106291,-0.558637 -0.193844,-0.393758 -0.515999,-0.610935 -0.952577,-0.642172 -0.480738,-0.03439 -0.901607,0.202718 -1.128394,0.635727 -0.08897,0.169875 -0.105608,0.251255 -0.105608,0.516512 0,0.265258 0.01664,0.346637 0.105608,0.516513 0.281052,0.536619 0.899146,0.774996 1.46274,0.564128 z M 18.233047,9.0580801 C 18.204954,8.9660793 18.024595,8.3727543 17.832255,7.739578 L 17.482548,6.5883473 h -1.11262 -1.112619 v 1.3185031 1.3185032 h 1.51341 1.513414 z"
       id="path1" /></g></svg>
